<svg width="34" height="32" viewBox="0 0 34 32" fill="none" xmlns="http://www.w3.org/2000/svg">
<g clip-path="url(#clip0)">
<path d="M11.3174 5.00701C11.7654 4.56301 12.5111 4.56301 12.9748 5.00701C13.4228 5.43601 13.4228 6.15001 12.9748 6.57801L4.57099 14.625H32.3024C32.9488 14.626 33.4626 15.118 33.4626 15.737C33.4626 16.356 32.9488 16.864 32.3024 16.864H4.57099L12.9748 24.896C13.4228 25.34 13.4228 26.055 12.9748 26.483C12.5111 26.927 11.7644 26.927 11.3174 26.483L0.92416 16.531C0.460472 16.102 0.460472 15.388 0.92416 14.96L11.3174 5.00701Z" fill="white"/>
</g>
<defs>
<clipPath id="clip0">
<rect width="32.8863" height="31.49" fill="white" transform="matrix(-1 0 0 1 33.4626 0)"/>
</clipPath>
</defs>
</svg>
