<svg width="14" height="11" viewBox="0 0 14 11" fill="none" xmlns="http://www.w3.org/2000/svg">
<g clip-path="url(#clip0)">
<path d="M12.0078 3.57287L8.82912 3.12912L7.40838 0.370792C7.15383 -0.120874 6.41626 -0.127124 6.15953 0.370792L4.73879 3.12912L1.56008 3.57287C0.990047 3.65204 0.761598 4.32495 1.17498 4.71037L3.4747 6.8562L2.93078 9.88744C2.83287 10.4354 3.43554 10.8458 3.94031 10.5895L6.78396 9.15828L9.62761 10.5895C10.1324 10.8437 10.735 10.4354 10.6371 9.88744L10.0932 6.8562L12.3929 4.71037C12.8063 4.32495 12.5779 3.65204 12.0078 3.57287ZM8.97272 6.5062L9.48836 9.38953L6.78396 8.02911L4.07955 9.38953L4.59519 6.5062L2.40643 4.46454L5.43067 4.0437L6.78396 1.41871L8.13725 4.0437L11.1615 4.46454L8.97272 6.5062Z" fill="white"/>
</g>
<defs>
<clipPath id="clip0">
<rect width="12.5321" height="10.6667" fill="white" transform="translate(0.517914)"/>
</clipPath>
</defs>
</svg>
